<?xml version="1.0" encoding="UTF-8" standalone="no"?>
<svg
   xmlns:dc="http://purl.org/dc/elements/1.1/"
   xmlns:cc="http://creativecommons.org/ns#"
   xmlns:rdf="http://www.w3.org/1999/02/22-rdf-syntax-ns#"
   xmlns:svg="http://www.w3.org/2000/svg"
   xmlns="http://www.w3.org/2000/svg"
   xmlns:sodipodi="http://sodipodi.sourceforge.net/DTD/sodipodi-0.dtd"
   xmlns:inkscape="http://www.inkscape.org/namespaces/inkscape"
   width="130"
   height="30"
   viewBox="0 0 130 30"
   version="1.1"
   id="svg10"
   sodipodi:docname="logo.svg"
   style="fill:none"
   inkscape:version="0.92.4 (5da689c313, 2019-01-14)">
  <metadata
     id="metadata16">
    <rdf:RDF>
      <cc:Work
         rdf:about="">
        <dc:format>image/svg+xml</dc:format>
        <dc:type
           rdf:resource="http://purl.org/dc/dcmitype/StillImage" />
        <dc:title></dc:title>
      </cc:Work>
    </rdf:RDF>
  </metadata>
  <defs
     id="defs14" />
  <sodipodi:namedview
     pagecolor="#ffffff"
     bordercolor="#666666"
     borderopacity="1"
     objecttolerance="10"
     gridtolerance="10"
     guidetolerance="10"
     inkscape:pageopacity="0"
     inkscape:pageshadow="2"
     inkscape:window-width="1920"
     inkscape:window-height="1017"
     id="namedview12"
     showgrid="false"
     inkscape:zoom="9.7490909"
     inkscape:cx="66.060779"
     inkscape:cy="20.75051"
     inkscape:window-x="-8"
     inkscape:window-y="-8"
     inkscape:window-maximized="1"
     inkscape:current-layer="layer1" />
  <g
     id="layer1"
     inkscape:label="Layer 1"
     transform="matrix(0.38982111,0,0,0.38982111,418.89741,-54.960867)">
    <path
       inkscape:connector-curvature="0"
       id="path4663"
       style="font-style:normal;font-variant:normal;font-weight:bold;font-stretch:normal;font-size:72.09815216px;line-height:1.25;font-family:'DM Sans';-inkscape-font-specification:'DM Sans Bold';letter-spacing:0px;word-spacing:0px;fill:#495057;fill-opacity:1;stroke:none;stroke-width:1.80245364"
       d="m -948.4512,203.34524 q -5.55156,0 -10.02164,-2.16295 -4.47009,-2.23504 -7.13772,-6.70513 -2.59553,-4.47008 -2.59553,-11.31941 v -31.1464 h 9.22856 v 31.2185 q 0,5.91205 2.81183,8.79598 2.88393,2.88392 7.9308,2.88392 4.97477,0 7.85869,-2.88392 2.88393,-2.88393 2.88393,-8.79598 v -31.2185 h 9.22856 v 31.1464 q 0,6.84933 -2.73973,11.31941 -2.73973,4.47009 -7.35401,6.70513 -4.54218,2.16295 -10.09374,2.16295 z" />
    <path
       inkscape:connector-curvature="0"
       id="path4671"
       style="font-style:normal;font-variant:normal;font-weight:bold;font-stretch:normal;font-size:72.09815216px;line-height:1.25;font-family:'DM Sans';-inkscape-font-specification:'DM Sans Bold';letter-spacing:0px;word-spacing:0px;fill:#495057;fill-opacity:1;stroke:none;stroke-width:1.80245364"
       d="m -789.95468,161.16782 q -2.52343,0 -4.18169,-1.51406 -1.58616,-1.51407 -1.58616,-3.82121 0,-2.30714 1.58616,-3.7491 1.65826,-1.51406 4.18169,-1.51406 2.52344,0 4.1096,1.51406 1.65826,1.44196 1.65826,3.7491 0,2.30714 -1.65826,3.82121 -1.58616,1.51406 -4.1096,1.51406 z m -4.61428,41.31224 v -35.76069 h 9.22856 v 35.76069 z" />
    <g
       id="g4691"
       transform="translate(0,5.1305585)">
      <path
         d="m -918.98896,197.3495 v -35.76069 h 8.14709 l 0.72098,6.05625 q 1.65826,-3.17232 4.75848,-5.04687 3.17232,-1.87455 7.42611,-1.87455 6.63303,0 10.31003,4.18169 3.67701,4.18169 3.67701,12.25668 v 20.18749 h -9.22856 v -19.32231 q 0,-4.61428 -1.87456,-7.06562 -1.87455,-2.45133 -5.83995,-2.45133 -3.8933,0 -6.41673,2.73973 -2.45134,2.73973 -2.45134,7.6424 v 18.45713 z"
         style="font-style:normal;font-variant:normal;font-weight:bold;font-stretch:normal;font-size:72.09815216px;line-height:1.25;font-family:'DM Sans';-inkscape-font-specification:'DM Sans Bold';letter-spacing:0px;word-spacing:0px;fill:#495057;fill-opacity:1;stroke:none;stroke-width:1.80245364"
         id="path4665"
         inkscape:connector-curvature="0" />
      <path
         d="m -862.86618,198.21468 q -4.61429,0 -7.57031,-1.44197 -2.95602,-1.51406 -4.39799,-3.9654 -1.44196,-2.45133 -1.44196,-5.40736 0,-4.97477 3.8933,-8.07499 3.8933,-3.10022 11.6799,-3.10022 h 9.08437 v -0.86518 q 0,-3.677 -2.09085,-5.40736 -2.09084,-1.73036 -5.19107,-1.73036 -2.81182,0 -4.90267,1.36987 -2.09085,1.29777 -2.59553,3.8933 h -9.01227 q 0.36049,-3.8933 2.59553,-6.77723 2.30714,-2.88392 5.91205,-4.39798 3.60491,-1.58616 8.07499,-1.58616 7.64241,0 12.04039,3.8212 4.39799,3.8212 4.39799,10.81472 v 21.98994 h -7.8587 l -0.86517,-5.76785 q -1.58616,2.88392 -4.47009,4.75847 -2.81183,1.87456 -7.28191,1.87456 z m 2.09084,-7.20982 q 3.9654,0 6.12835,-2.59553 2.23504,-2.59554 2.81182,-6.41674 h -7.8587 q -3.677,0 -5.26316,1.36987 -1.58616,1.29776 -1.58616,3.24441 0,2.09085 1.58616,3.24442 1.58616,1.15357 4.18169,1.15357 z"
         style="font-style:normal;font-variant:normal;font-weight:bold;font-stretch:normal;font-size:72.09815216px;line-height:1.25;font-family:'DM Sans';-inkscape-font-specification:'DM Sans Bold';letter-spacing:0px;word-spacing:0px;fill:#495057;fill-opacity:1;stroke:none;stroke-width:1.80245364"
         id="path4667"
         inkscape:connector-curvature="0" />
      <path
         d="m -825.11942,197.3495 -13.12186,-35.76069 h 9.66115 l 9.08437,27.03681 9.08437,-27.03681 h 9.66115 l -13.19396,35.76069 z"
         style="font-style:normal;font-variant:normal;font-weight:bold;font-stretch:normal;font-size:72.09815216px;line-height:1.25;font-family:'DM Sans';-inkscape-font-specification:'DM Sans Bold';letter-spacing:0px;word-spacing:0px;fill:#495057;fill-opacity:1;stroke:none;stroke-width:1.80245364"
         id="path4669"
         inkscape:connector-curvature="0" />
      <path
         d="m -779.02618,197.3495 12.97767,-17.88034 -12.97767,-17.88035 h 9.87745 l 9.08437,12.68928 9.01227,-12.68928 h 9.94954 l -13.04976,17.88035 13.04976,17.88034 h -9.94954 l -9.01227,-12.68928 -9.08437,12.68928 z"
         style="font-style:normal;font-variant:normal;font-weight:bold;font-stretch:normal;font-size:72.09815216px;line-height:1.25;font-family:'DM Sans';-inkscape-font-specification:'DM Sans Bold';letter-spacing:0px;word-spacing:0px;fill:#495057;fill-opacity:1;stroke:none;stroke-width:1.80245364"
         id="path4673"
         inkscape:connector-curvature="0" />
    </g>
    <g
       id="g4685">
      <path
         style="opacity:1;fill:#3755be;fill-opacity:1;stroke:none;stroke-width:21.9845047;stroke-miterlimit:4;stroke-dasharray:none;stroke-opacity:1"
         d="m -1001.4981,181.40297 a 36.545365,36.545362 0 0 1 -18.2726,31.64922 36.545365,36.545362 0 0 1 -36.5454,0 36.545365,36.545362 0 0 1 -18.2727,-31.64922 h 36.5453 z"
         id="path837"
         inkscape:connector-curvature="0"
         inkscape:export-filename="C:\Users\user\Documents\Logos\Text.png"
         inkscape:export-xdpi="482.46976"
         inkscape:export-ydpi="482.46976" />
      <rect
         y="140.98997"
         x="-1034.1754"
         height="32.677574"
         width="32.677574"
         id="rect839"
         style="opacity:1;fill:#5570cd;fill-opacity:1;stroke:none;stroke-width:7.52993441;stroke-miterlimit:4;stroke-dasharray:none;stroke-opacity:1"
         inkscape:export-filename="C:\Users\user\Documents\Logos\Text.png"
         inkscape:export-xdpi="482.46976"
         inkscape:export-ydpi="482.46976" />
      <rect
         ry="16.338787"
         style="opacity:1;fill:#2e48a0;fill-opacity:1;stroke:none;stroke-width:7.52993441;stroke-miterlimit:4;stroke-dasharray:none;stroke-opacity:1"
         id="rect841"
         width="32.677574"
         height="32.677574"
         x="-1074.5886"
         y="140.98997"
         inkscape:export-filename="C:\Users\user\Documents\Logos\Text.png"
         inkscape:export-xdpi="482.46976"
         inkscape:export-ydpi="482.46976" />
    </g>
    <text
       xml:space="preserve"
       style="font-style:normal;font-variant:normal;font-weight:bold;font-stretch:normal;font-size:49.32099533px;line-height:1.25;font-family:'DM Sans';-inkscape-font-specification:'DM Sans Bold';letter-spacing:0px;word-spacing:0px;opacity:1;fill:#ffffff;fill-opacity:1;stroke:none;stroke-width:1.23302484"
       x="-536.15759"
       y="-58.386848"
       id="text871"
       inkscape:export-filename="E:\Web\Unavix\assets\images\TextWhite.png"
       inkscape:export-xdpi="482.46976"
       inkscape:export-ydpi="482.46976"><tspan
         sodipodi:role="line"
         id="tspan869"
         x="-536.15759"
         y="-58.386848"
         style="font-style:normal;font-variant:normal;font-weight:bold;font-stretch:normal;font-family:'DM Sans';-inkscape-font-specification:'DM Sans Bold';fill:#ffffff;fill-opacity:1;stroke-width:1.23302484">Unavix</tspan></text>
  </g>
</svg>
